<?xml version="1.0" encoding="utf-8"?>
<!-- Generator: Adobe Illustrator 28.4.1, SVG Export Plug-In . SVG Version: 6.00 Build 0)  -->
<svg version="1.2" baseProfile="tiny" id="svg39" xmlns:svg="http://www.w3.org/2000/svg"
	 xmlns="http://www.w3.org/2000/svg" xmlns:xlink="http://www.w3.org/1999/xlink" x="0px" y="0px" viewBox="0 0 512 498"
	 overflow="visible" xml:space="preserve">
<path id="path1" fill="none" d="M451.7,83.4l6.1,3.5l0,0l0.1-0.1l-6.1-3.5L451.7,83.4z"/>
<path id="path2" fill="none" d="M452.6,29.6c-12.5-0.1-19.2,11.5-32.9,35.3L394.4,109h0.1L420,64.9c10-17.4,16.3-28.3,23.9-32.8
	c0.8-0.5,1.7-0.9,2.6-1.3c1.3-0.5,2.6-0.8,4-1C451.1,29.6,451.9,29.6,452.6,29.6z"/>
<path id="path3" fill="none" d="M197.6,109H197c0-0.1,0-0.2,0-0.3c0-6.9-0.8-13.7-2.3-20.1C189.9,68,177.9,50.2,161.5,38
	c-14.6-10.9-32.7-17.4-52.3-17.6c0.2,0,0.3,0,0.5,0c44.8,0,81.8,33.6,87.2,77.1c0.5,3.6,0.7,7.4,0.7,11.1c0,0,0,0.1,0,0.1
	C197.6,108.9,197.6,108.9,197.6,109z"/>
<path id="path4" fill="none" d="M109.2,197c0.2,0,0.3,0,0.5,0c2,0,4-0.1,6-0.2c3.5-0.2,7-0.7,10.4-1.3l0-0.2
	C120.7,196.3,115,196.9,109.2,197z"/>
<path id="path5" fill="none" d="M457.7,100.1c-0.7-0.4-1.4-0.7-2.2-1l0.1-0.2L457.7,100.1z"/>
<path id="path6" fill-rule="evenodd" fill="none" d="M479.2,126.7c1.7-9.3-0.8-18.3-5.9-25.1l38.7-67l-17.7-10.2
	c-9.7-5.6-18.9-10.3-27.3-12.9c-9-2.7-19.1-3.6-29.3,0.8c-9.4,4.1-15.7,11.5-20.5,18c-4.7,6.5-9.4,14.8-14.6,23.6v0l-20,34.6H215.5
	C206.1,38.2,161.8,0,108.7,0C48.7,0,0,48.7,0,108.7c0,60,48.7,108.7,108.7,108.7c0.4,0,0.7,0,1.1,0l51.5,253.9
	c3.1,15.1,16.3,25.9,31.7,25.9h192.2c15.7,0,29.1-11.2,31.9-26.6L479.2,126.7z M470,125.1c1.7-9.7-2.7-18.9-10.3-23.8l2.3,1.3
	l37.2-64.7l-9.9-5.7c-9.6-5.6-18-9.9-25.4-12.1c-7.7-2.4-15.5-2.9-23,0.5c-7.1,3.1-12.3,8.9-16.7,15.1c-4.4,6.1-8.9,14.1-14.2,23.2
	l-22.3,38.8H208.5C202.9,47.8,160.9,9,109.7,9c-54.9,0-99.3,44.7-99.3,99.7c0,55,44.4,99.7,99.3,99.7c2.8,0,5.6-0.1,8.3-0.3
	l52.8,261.4c2.2,10.9,11.7,18.8,22.9,18.8h191.4c11.3,0,21-8.1,23-19.2L470,125.1z"/>
<path id="path7" fill-rule="evenodd" fill="none" d="M451.7,83.4l0.1-0.2l6.1,3.5l0.3,0.2L484.1,42c-14.5-8.3-24-12.5-31.5-12.5
	c-0.7,0-1.5,0.1-2.2,0.1c-1.4,0.2-2.7,0.5-4,1c-0.9,0.4-1.7,0.8-2.6,1.3c-7.6,4.6-13.8,15.4-23.9,32.8L394.5,109h-0.1H197.6H197
	c-0.1,42.7-30.5,78.2-70.8,86.3l0,0.2l54.9,270.7c1.3,6.2,6.7,10.6,13,10.6h190c6.4,0,11.9-4.6,13.1-10.9l61.7-341.2
	c1.5-8.2-4.8-15.7-13.1-15.7H437L451.7,83.4z M437,109h-42.5L225.9,400.9l-17.8,50.2c-1.4,4,0.2,8.5,3.9,10.6
	c3.7,2.1,8.4,1.3,11.1-1.9l34.6-40.5L437,109z M239.2,197.7c0-2.3-1.8-4.1-4.1-4.1h-36c-2.3,0-4.1,1.8-4.1,4.1v40.1H155
	c-2.3,0-4.1,1.8-4.1,4.1v36c0,2.3,1.8,4.1,4.1,4.1H195v40.1c0,2.3,1.8,4.1,4.1,4.1h36c2.3,0,4.1-1.8,4.1-4.1v-40.1h40.1
	c2.3,0,4.1-1.8,4.1-4.1v-36c0-2.3-1.8-4.1-4.1-4.1h-40.1V197.7z M220.8,311.3v-14.7c0-2-1.6-3.7-3.7-3.7s-3.7,1.6-3.7,3.7v14.7
	c0,2,1.6,3.7,3.7,3.7S220.8,313.3,220.8,311.3z M220.8,208.3V223c0,2-1.6,3.7-3.7,3.7s-3.7-1.6-3.7-3.7v-14.7c0-2,1.6-3.7,3.7-3.7
	S220.8,206.3,220.8,208.3z M268.6,256.1h-14.7c-2,0-3.7,1.6-3.7,3.7s1.6,3.7,3.7,3.7h14.7c2,0,3.7-1.6,3.7-3.7
	S270.6,256.1,268.6,256.1z M165.6,256.1h14.7c2,0,3.7,1.6,3.7,3.7s-1.6,3.7-3.7,3.7h-14.7c-2,0-3.7-1.6-3.7-3.7
	S163.6,256.1,165.6,256.1z M351.7,370.5c0,10.2-8.2,18.4-18.4,18.4c-10.2,0-18.4-8.2-18.4-18.4s8.2-18.4,18.4-18.4
	C343.5,352.1,351.7,360.3,351.7,370.5z M388.5,407.2c0,10.2-8.2,18.4-18.4,18.4c-10.2,0-18.4-8.2-18.4-18.4
	c0-10.2,8.2-18.4,18.4-18.4C380.3,388.8,388.5,397.1,388.5,407.2z M296.6,425.6c10.2,0,18.4-8.2,18.4-18.4
	c0-10.2-8.2-18.4-18.4-18.4c-10.2,0-18.4,8.2-18.4,18.4C278.2,417.4,286.4,425.6,296.6,425.6z M351.7,444c0,10.2-8.2,18.4-18.4,18.4
	c-10.2,0-18.4-8.2-18.4-18.4c0-10.2,8.2-18.4,18.4-18.4C343.5,425.6,351.7,433.9,351.7,444z"/>
<path id="path8" fill-rule="evenodd" fill="none" d="M459.7,101.3c7.6,4.9,12.1,14.1,10.3,23.8L408.1,469c-2,11.1-11.7,19.2-23,19.2
	H193.7c-11.1,0-20.7-7.9-22.9-18.8L118,208.1c-2.7,0.2-5.5,0.3-8.3,0.3c-54.9,0-99.3-44.7-99.3-99.7c0-55,44.4-99.7,99.3-99.7
	c51.2,0,93.2,38.8,98.7,88.6h179.3l22.3-38.8c5.2-9.1,9.8-17,14.2-23.2c4.4-6.2,9.6-11.9,16.7-15.1c7.6-3.3,15.3-2.8,23-0.5
	c7.4,2.3,15.8,6.5,25.4,12.1l9.9,5.7L462,102.6L459.7,101.3z M451.7,83.4l6.1,3.5l0,0l0.1-0.1l-6.1-3.5L451.7,83.4z M451.8,83.3
	l6.1,3.5l0.3,0.2L484.1,42c-14.5-8.3-24-12.5-31.5-12.5c-0.7,0-1.5,0.1-2.2,0.1c-1.4,0.2-2.7,0.5-4,1c-0.9,0.4-1.7,0.8-2.6,1.3
	c-7.6,4.6-13.8,15.4-23.9,32.8L394.5,109H437l14.8-25.5L451.8,83.3z M452.6,29.6c-12.5-0.1-19.2,11.5-32.9,35.3L394.4,109h0.1
	L420,64.9c10-17.4,16.3-28.3,23.9-32.8c0.8-0.5,1.7-0.9,2.6-1.3c1.3-0.5,2.6-0.8,4-1C451.1,29.6,451.9,29.6,452.6,29.6z M394.5,109
	h-0.1H197.6H197c-0.1,42.7-30.5,78.2-70.8,86.3l0,0.2l54.9,270.7c1.3,6.2,6.7,10.6,13,10.6h190c6.4,0,11.9-4.6,13.1-10.9l61.7-341.2
	c1.5-8.2-4.8-15.7-13.1-15.7H437L257.8,419.3l-34.6,40.5c-2.8,3.2-7.5,4-11.1,1.9c-3.7-2.1-5.3-6.6-3.9-10.6l17.8-50.2L394.5,109z
	 M197,109h0.7v-0.2v-0.1c0-3.8-0.2-7.5-0.7-11.1c-5.5-43.5-42.4-77.1-87.2-77.1c-0.2,0-0.3,0-0.5,0c19.6,0.1,37.7,6.6,52.3,17.6
	c16.4,12.2,28.3,30,33.1,50.6c1.5,6.5,2.3,13.2,2.3,20.1C197,108.8,197,108.9,197,109z M109.2,197c0.2,0,0.3,0,0.5,0
	c2,0,4-0.1,6-0.2c3.5-0.2,7-0.7,10.4-1.3l0-0.2C120.7,196.3,115,196.9,109.2,197z M457.7,100.1c-0.7-0.4-1.4-0.7-2.2-1l0.1-0.2
	L457.7,100.1z M437,109h-42.5L225.9,400.9l-17.8,50.2c-1.4,4,0.2,8.5,3.9,10.6c3.7,2.1,8.4,1.3,11.1-1.9l34.6-40.5L437,109z
	 M126.1,195.2c40.3-8.1,70.7-43.6,70.8-86.3h-72.1c-8.4,0-14.7,7.7-13,15.9L126.1,195.2z M157.4,53.6c-2.4-2.1-6-1.6-7.9,1
	l-28.9,38.3c-0.5,0.6-0.3,1.5,0.2,2.1c0.6,0.5,1.5,0.5,2.1,0l34.5-33.3C159.7,59.4,159.8,55.7,157.4,53.6z M82.2,46.3
	c-1.2-2.9,0.1-6.4,3.1-7.4c3-1,6.2,0.9,6.9,4l11.6,46.5c0.2,0.8-0.3,1.6-1,1.8c-0.8,0.3-1.6-0.1-1.9-0.8L82.2,46.3z M36.6,94
	c-0.6,3.1,1.6,6,4.8,6.4l47.6,5.8c0.8,0.1,1.5-0.5,1.7-1.2c0.2-0.8-0.3-1.6-1-1.8L43.5,90C40.5,89.1,37.2,90.9,36.6,94z M67.9,162.8
	c-1.9,2.5-5.6,3.1-7.9,1c-2.4-2.1-2.3-5.8,0-8l34.5-33.3c0.6-0.6,1.5-0.5,2.1,0c0.6,0.5,0.7,1.4,0.2,2.1L67.9,162.8z"/>
<path id="path9" fill="none" d="M437,109h-42.5L225.9,400.9l-17.8,50.2c-1.4,4,0.2,8.5,3.9,10.6c3.7,2.1,8.4,1.3,11.1-1.9l34.6-40.5
	L437,109z"/>
<path id="path10" fill="none" d="M296.6,425.6c10.2,0,18.4-8.2,18.4-18.4c0-10.2-8.2-18.4-18.4-18.4c-10.2,0-18.4,8.2-18.4,18.4
	C278.2,417.4,286.4,425.6,296.6,425.6z"/>
<path id="path11" fill="none" d="M351.7,370.5c0,10.2-8.2,18.4-18.4,18.4c-10.2,0-18.4-8.2-18.4-18.4s8.2-18.4,18.4-18.4
	C343.5,352.1,351.7,360.3,351.7,370.5z"/>
<path id="path12" fill="none" d="M388.5,407.2c0,10.2-8.2,18.4-18.4,18.4c-10.2,0-18.4-8.2-18.4-18.4c0-10.2,8.2-18.4,18.4-18.4
	C380.3,388.8,388.5,397.1,388.5,407.2z"/>
<path id="path13" fill="none" d="M351.7,444c0,10.2-8.2,18.4-18.4,18.4c-10.2,0-18.4-8.2-18.4-18.4c0-10.2,8.2-18.4,18.4-18.4
	C343.5,425.6,351.7,433.9,351.7,444z"/>
<path id="path14" fill-rule="evenodd" fill="none" d="M239.2,197.7c0-2.3-1.8-4.1-4.1-4.1h-36c-2.3,0-4.1,1.8-4.1,4.1v40.1H155
	c-2.3,0-4.1,1.8-4.1,4.1v36c0,2.3,1.8,4.1,4.1,4.1H195v40.1c0,2.3,1.8,4.1,4.1,4.1h36c2.3,0,4.1-1.8,4.1-4.1v-40.1h40.1
	c2.3,0,4.1-1.8,4.1-4.1v-36c0-2.3-1.8-4.1-4.1-4.1h-40.1V197.7z M220.8,296.6v14.7c0,2-1.6,3.7-3.7,3.7s-3.7-1.6-3.7-3.7v-14.7
	c0-2,1.6-3.7,3.7-3.7S220.8,294.5,220.8,296.6z M220.8,223v-14.7c0-2-1.6-3.7-3.7-3.7s-3.7,1.6-3.7,3.7V223c0,2,1.6,3.7,3.7,3.7
	S220.8,225,220.8,223z M253.9,256.1h14.7c2,0,3.7,1.6,3.7,3.7s-1.6,3.7-3.7,3.7h-14.7c-2,0-3.7-1.6-3.7-3.7S251.9,256.1,253.9,256.1
	z M180.3,256.1h-14.7c-2,0-3.7,1.6-3.7,3.7s1.6,3.7,3.7,3.7h14.7c2,0,3.7-1.6,3.7-3.7S182.4,256.1,180.3,256.1z"/>
<path id="path15" fill="none" d="M126.1,195.2c40.3-8.1,70.7-43.6,70.8-86.3h-72.1c-8.4,0-14.7,7.7-13,15.9L126.1,195.2z"/>
<path id="path16" fill="none" d="M59.9,163.8c2.4,2.1,6,1.6,7.9-1l28.9-38.3c0.5-0.6,0.3-1.5-0.2-2.1c-0.6-0.5-1.5-0.5-2.1,0
	l-34.5,33.3C57.6,158,57.6,161.7,59.9,163.8z"/>
<path id="path17" fill="none" d="M41.4,100.4c-3.2-0.4-5.4-3.3-4.8-6.4c0.6-3.1,3.9-4.9,6.9-4l46.1,13.2c0.8,0.2,1.2,1,1,1.8
	c-0.2,0.8-0.9,1.3-1.7,1.2L41.4,100.4z"/>
<path id="path18" fill="none" d="M85.3,38.9c-3,1-4.4,4.4-3.1,7.4l18.7,44.1c0.3,0.7,1.2,1.1,1.9,0.8c0.8-0.3,1.2-1,1-1.8L92.3,42.9
	C91.5,39.8,88.4,37.9,85.3,38.9z"/>
<path id="path19" fill="none" d="M149.5,54.6c1.9-2.5,5.6-3.1,7.9-1c2.4,2.1,2.3,5.8,0,8L123,94.9c-0.6,0.6-1.5,0.5-2.1,0
	c-0.6-0.5-0.7-1.4-0.2-2.1L149.5,54.6z"/>
<path id="path20" fill="none" d="M451.7,83.4l6.1,3.5l0,0l0.1-0.1l-6.1-3.5L451.7,83.4z"/>
<path id="path21" fill="none" d="M452.6,29.6c-12.5-0.1-19.2,11.5-32.9,35.3L394.4,109h0.1L420,64.9
	C433.6,41.3,440.3,29.7,452.6,29.6z"/>
<path id="path22" fill="none" d="M197.6,109H197c0-0.1,0-0.2,0-0.3c0-6.9-0.8-13.7-2.3-20.1c-9.1-38.9-43.9-67.9-85.4-68.1
	c0.2,0,0.3,0,0.5,0c44.8,0,81.8,33.6,87.2,77.1c0.5,3.6,0.7,7.4,0.7,11.1c0,0,0,0.1,0,0.1C197.6,108.9,197.6,108.9,197.6,109z"/>
<path id="path23" fill="none" d="M109.2,197c0.2,0,0.3,0,0.5,0c2,0,4-0.1,6-0.2c3.5-0.2,7-0.7,10.4-1.3l0-0.2
	C120.6,196.3,115,196.9,109.2,197z"/>
<path id="path24" fill="none" d="M457.7,100.1c-0.7-0.4-1.4-0.7-2.2-1l0.1-0.2L457.7,100.1z"/>
<linearGradient id="path25_00000046305258776763435120000015996445615757116588_" gradientUnits="userSpaceOnUse" x1="71.7942" y1="-8.1263" x2="487.8863" y2="407.9657">
	<stop  offset="0" style="stop-color:#FA7308"/>
	<stop  offset="1" style="stop-color:#F5F000"/>
</linearGradient>
<path id="path25" fill-rule="evenodd" fill="url(#path25_00000046305258776763435120000015996445615757116588_)" d="M479.2,126.7
	c1.7-9.3-0.8-18.3-5.9-25.1l38.7-67l-17.7-10.2c-9.7-5.6-18.9-10.3-27.3-12.9c-9-2.7-19.1-3.6-29.3,0.8c-9.4,4.1-15.7,11.5-20.5,18
	c-4.7,6.5-9.4,14.8-14.6,23.6v0l-20,34.6H215.5C206.1,38.2,161.8,0,108.7,0C48.7,0,0,48.7,0,108.7c0,60,48.7,108.7,108.7,108.7
	c0.4,0,0.7,0,1.1,0l51.5,253.9c3.1,15.1,16.3,25.9,31.7,25.9h192.2c15.7,0,29.1-11.2,31.9-26.6L479.2,126.7z M470,125.1
	c1.7-9.7-2.7-18.9-10.3-23.8l2.3,1.3l37.2-64.7l-9.9-5.7c-9.6-5.6-18-9.9-25.4-12.1c-7.7-2.4-15.5-2.9-23,0.5
	c-7.1,3.1-12.3,8.9-16.7,15.1c-4.4,6.1-8.9,14.1-14.2,23.2l-22.3,38.8H208.5C202.9,47.8,160.9,9,109.7,9
	c-54.9,0-99.3,44.7-99.3,99.7c0,55,44.4,99.7,99.3,99.7c2.8,0,5.6-0.1,8.3-0.3l52.8,261.4c2.2,10.9,11.7,18.8,22.9,18.8h191.4
	c11.3,0,21-8.1,23-19.2L470,125.1z"/>
<linearGradient id="path26_00000025406669358106844220000009431221621829741231_" gradientUnits="userSpaceOnUse" x1="84.7419" y1="7.7999" x2="471.6819" y2="394.74">
	<stop  offset="0" style="stop-color:#FA7308"/>
	<stop  offset="1" style="stop-color:#F5F000"/>
</linearGradient>
<path id="path26" fill-rule="evenodd" fill="url(#path26_00000025406669358106844220000009431221621829741231_)" d="M197,109
	c0-0.1,0-0.2,0-0.3c0-48.8-39.5-88.3-88.3-88.3c-48.8,0-88.3,39.5-88.3,88.3c0,48.8,39.5,88.3,88.3,88.3c6,0,11.8-0.6,17.4-1.7
	l55,270.9c1.3,6.2,6.7,10.6,13,10.6h190c6.4,0,11.9-4.6,13.1-10.9l61.7-341.2c1.5-8.2-4.8-15.7-13.1-15.7H437l14.8-25.7l6.4,3.7
	L484.1,42C445.9,20,441.8,27,420,64.9L394.5,109H197z M394.5,109H437L257.8,419.3l-34.6,40.5c-2.8,3.2-7.5,4-11.1,1.9
	c-3.7-2.1-5.3-6.6-3.9-10.6l17.8-50.2L394.5,109z M197,109c-0.1,42.7-30.5,78.2-70.8,86.3l-14.3-70.3c-1.7-8.2,4.6-15.9,13-15.9H197
	z M157.4,53.6c-2.4-2.1-6-1.6-7.9,1l-28.9,38.3c-0.5,0.6-0.3,1.5,0.2,2.1c0.6,0.5,1.5,0.5,2.1,0l34.5-33.3
	C159.7,59.4,159.8,55.7,157.4,53.6z M82.2,46.3c-1.2-2.9,0.1-6.4,3.1-7.4c3-1,6.2,0.9,6.9,4l11.6,46.5c0.2,0.8-0.3,1.6-1,1.8
	c-0.8,0.3-1.6-0.1-1.9-0.8L82.2,46.3z M36.6,94c-0.6,3.1,1.6,6,4.8,6.4l47.6,5.8c0.8,0.1,1.5-0.5,1.7-1.2c0.2-0.8-0.3-1.6-1-1.8
	L43.5,90C40.5,89.1,37.2,90.9,36.6,94z M67.9,162.8c-1.9,2.5-5.6,3.1-7.9,1c-2.4-2.1-2.3-5.8,0-8l34.5-33.3c0.6-0.6,1.5-0.5,2.1,0
	c0.6,0.5,0.7,1.4,0.2,2.1L67.9,162.8z M235.1,193.6c2.3,0,4.1,1.8,4.1,4.1v40.1h40.1c2.3,0,4.1,1.8,4.1,4.1v36
	c0,2.3-1.8,4.1-4.1,4.1h-40.1v40.1c0,2.3-1.8,4.1-4.1,4.1h-36c-2.3,0-4.1-1.8-4.1-4.1v-40.1H155c-2.3,0-4.1-1.8-4.1-4.1v-36
	c0-2.3,1.8-4.1,4.1-4.1H195v-40.1c0-2.3,1.8-4.1,4.1-4.1H235.1z M220.8,296.6v14.7c0,2-1.6,3.7-3.7,3.7s-3.7-1.6-3.7-3.7v-14.7
	c0-2,1.6-3.7,3.7-3.7S220.8,294.5,220.8,296.6z M220.8,223v-14.7c0-2-1.6-3.7-3.7-3.7s-3.7,1.6-3.7,3.7V223c0,2,1.6,3.7,3.7,3.7
	S220.8,225,220.8,223z M253.9,256.1h14.7c2,0,3.7,1.6,3.7,3.7s-1.6,3.7-3.7,3.7h-14.7c-2,0-3.7-1.6-3.7-3.7S251.9,256.1,253.9,256.1
	z M180.3,256.1h-14.7c-2,0-3.7,1.6-3.7,3.7s1.6,3.7,3.7,3.7h14.7c2,0,3.7-1.6,3.7-3.7S182.4,256.1,180.3,256.1z M333.3,388.8
	c10.2,0,18.4-8.2,18.4-18.4s-8.2-18.4-18.4-18.4c-10.2,0-18.4,8.2-18.4,18.4S323.2,388.8,333.3,388.8z M370.1,425.6
	c10.2,0,18.4-8.2,18.4-18.4c0-10.2-8.2-18.4-18.4-18.4c-10.2,0-18.4,8.2-18.4,18.4C351.7,417.4,360,425.6,370.1,425.6z M314.9,407.2
	c0,10.2-8.2,18.4-18.4,18.4c-10.2,0-18.4-8.2-18.4-18.4c0-10.2,8.2-18.4,18.4-18.4C306.7,388.8,314.9,397.1,314.9,407.2z
	 M333.3,462.4c10.2,0,18.4-8.2,18.4-18.4c0-10.2-8.2-18.4-18.4-18.4c-10.2,0-18.4,8.2-18.4,18.4
	C314.9,454.2,323.2,462.4,333.3,462.4z"/>
</svg>
