<svg width="512" height="498" viewBox="0 0 512 498" fill="none" xmlns="http://www.w3.org/2000/svg">
<path d="M451.72 83.4316L457.793 86.9527L457.806 86.9303L457.89 86.785L451.81 83.2747L451.72 83.4316Z" fill="white" style="fill:white;fill-opacity:1;"/>
<path d="M452.597 29.5781C440.094 29.4636 433.413 41.0822 419.726 64.885L394.372 108.98H394.5L419.958 64.885C433.566 41.3145 440.277 29.6915 452.597 29.5781Z" fill="white" style="fill:white;fill-opacity:1;"/>
<path d="M197.633 108.98H196.958C196.958 108.883 196.959 108.785 196.959 108.688C196.959 101.764 196.162 95.0274 194.654 88.5632C185.585 49.6706 150.804 20.6573 109.206 20.4184C109.377 20.4174 109.549 20.4169 109.721 20.4169C154.515 20.4169 191.485 54.0555 196.94 97.5466C197.398 101.196 197.633 104.914 197.633 108.688C197.633 108.731 197.633 108.775 197.633 108.818C197.633 108.872 197.633 108.926 197.633 108.98Z" fill="white" style="fill:white;fill-opacity:1;"/>
<path d="M109.206 196.957C109.377 196.958 109.549 196.959 109.721 196.959C111.739 196.959 113.74 196.89 115.723 196.756C119.262 196.517 122.743 196.067 126.155 195.419L126.118 195.238C120.647 196.334 114.992 196.924 109.206 196.957Z" fill="white" style="fill:white;fill-opacity:1;"/>
<path d="M457.708 100.119C457 99.7537 456.27 99.4236 455.52 99.131L455.641 98.9207L457.708 100.119Z" fill="white" style="fill:white;fill-opacity:1;"/>
<path fill-rule="evenodd" clip-rule="evenodd" d="M479.247 126.709C480.928 117.407 478.476 108.455 473.32 101.563L512 34.5682L494.318 24.3598C484.584 18.7397 475.458 14.0158 466.979 11.4372C457.991 8.70364 447.883 7.82174 437.72 12.2702C428.369 16.3633 421.98 23.7372 417.258 30.3086C412.605 36.7851 407.818 45.0779 402.705 53.9337L402.705 53.9351L382.712 88.5632H215.516C206.078 38.1515 161.838 0 108.688 0C48.6611 0 0 48.6612 0 108.688C0 168.714 48.6611 217.375 108.688 217.375C109.051 217.375 109.413 217.374 109.775 217.37L161.277 471.244C164.34 486.342 177.613 497.192 193.017 497.192H385.244C400.91 497.192 414.329 485.98 417.115 470.564L479.247 126.709ZM470.017 125.103C471.762 115.406 467.292 106.189 459.676 101.26L461.986 102.599L499.209 37.8638L489.352 32.1498C479.735 26.5751 471.388 22.2982 463.979 20.0357C456.283 17.6853 448.529 17.1842 440.97 20.5067C433.872 23.6262 428.66 29.4088 424.253 35.5683C419.883 41.6758 415.308 49.632 410.08 58.7243L387.757 97.5466H208.453C202.935 47.7594 160.874 8.98342 109.721 8.98342C54.8105 8.98342 10.3759 53.6665 10.3759 108.688C10.3759 163.709 54.8105 208.392 109.721 208.392C112.511 208.392 115.274 208.277 118.005 208.051L170.818 469.45C173.017 480.332 182.565 488.209 193.708 488.209H385.154C396.486 488.209 406.138 480.07 408.138 468.959L470.017 125.103Z" fill="white" style="fill:white;fill-opacity:1;"/>
<path fill-rule="evenodd" clip-rule="evenodd" d="M196.958 108.98C196.958 108.883 196.959 108.785 196.959 108.688C196.959 59.9371 157.438 20.417 108.688 20.417C59.9371 20.417 20.4169 59.9372 20.4169 108.688C20.4169 157.439 59.9371 196.959 108.688 196.959C114.655 196.959 120.483 196.367 126.118 195.238L181.072 466.128C182.329 472.323 187.775 476.775 194.096 476.775H384.142C390.57 476.775 396.076 472.175 397.219 465.849L458.875 124.632C460.348 116.479 454.083 108.98 445.797 108.98H436.969L451.81 83.2747L458.181 86.9533L484.11 42.042C445.888 19.9742 441.842 26.9811 419.958 64.885L394.5 108.98H196.958ZM394.5 108.98L436.969 108.98L257.798 419.314L223.228 459.803C220.46 463.045 215.773 463.851 212.081 461.719C208.389 459.588 206.743 455.126 208.167 451.108L225.946 400.924L394.5 108.98ZM196.958 108.98C196.82 151.634 166.429 187.164 126.118 195.238L111.852 124.911C110.181 116.678 116.474 108.98 124.876 108.98L196.958 108.98ZM157.429 53.5954C155.04 51.4812 151.4 52.0068 149.48 54.555L120.624 92.8477C120.144 93.4847 120.276 94.3862 120.873 94.9148C121.471 95.4433 122.381 95.4641 122.955 94.91L157.446 61.6027C159.741 59.3863 159.819 55.7096 157.429 53.5954ZM82.2033 46.2956C80.9565 43.3585 82.3212 39.9436 85.3471 38.9312C88.3729 37.9188 91.5179 39.8247 92.2898 42.9207L103.889 89.4441C104.082 90.218 103.609 90.9964 102.853 91.2496C102.096 91.5027 101.25 91.1659 100.938 90.4316L82.2033 46.2956ZM36.6055 94.0232C35.9693 97.1499 38.2444 100.039 41.4113 100.428L89.0015 106.271C89.7933 106.369 90.5082 105.804 90.6672 105.022C90.8262 104.241 90.3888 103.441 89.622 103.222L43.5318 90.0054C40.4647 89.1259 37.2416 90.8966 36.6055 94.0232ZM67.8956 162.822C65.9754 165.37 62.3357 165.895 59.946 163.781C57.5563 161.667 57.6344 157.99 59.9296 155.774L94.4202 122.467C94.994 121.912 95.9048 121.933 96.5023 122.462C97.0997 122.99 97.2313 123.892 96.7512 124.529L67.8956 162.822ZM235.096 193.572C237.352 193.572 239.18 195.401 239.18 197.656V237.708H279.232C281.487 237.708 283.315 239.536 283.315 241.791V277.76C283.315 280.015 281.487 281.843 279.232 281.843H239.18V321.895C239.18 324.151 237.352 325.979 235.096 325.979H199.128C196.872 325.979 195.044 324.151 195.044 321.895V281.843H154.992C152.737 281.843 150.909 280.015 150.909 277.76V241.791C150.909 239.536 152.737 237.708 154.992 237.708H195.044V197.656C195.044 195.401 196.872 193.572 199.128 193.572H235.096ZM220.79 296.556V311.268C220.79 313.299 219.143 314.946 217.112 314.946C215.081 314.946 213.434 313.299 213.434 311.268V296.556C213.434 294.525 215.081 292.878 217.112 292.878C219.143 292.878 220.79 294.525 220.79 296.556ZM220.79 222.997V208.286C220.79 206.254 219.143 204.608 217.112 204.608C215.081 204.608 213.434 206.254 213.434 208.286V222.997C213.434 225.029 215.081 226.675 217.112 226.675C219.143 226.675 220.79 225.029 220.79 222.997ZM253.892 256.098H268.603C270.635 256.098 272.281 257.745 272.281 259.776C272.281 261.807 270.635 263.454 268.603 263.454H253.892C251.86 263.454 250.214 261.807 250.214 259.776C250.214 257.745 251.86 256.098 253.892 256.098ZM180.332 256.098H165.621C163.589 256.098 161.943 257.745 161.943 259.776C161.943 261.807 163.589 263.454 165.621 263.454H180.332C182.364 263.454 184.01 261.807 184.01 259.776C184.01 257.745 182.364 256.098 180.332 256.098ZM333.335 388.842C343.492 388.842 351.725 380.608 351.725 370.452C351.725 360.295 343.492 352.062 333.335 352.062C323.179 352.062 314.945 360.295 314.945 370.452C314.945 380.608 323.179 388.842 333.335 388.842ZM370.115 425.621C380.271 425.621 388.504 417.388 388.504 407.231C388.504 397.075 380.271 388.842 370.115 388.842C359.958 388.842 351.725 397.075 351.725 407.231C351.725 417.388 359.958 425.621 370.115 425.621ZM314.945 407.231C314.945 417.388 306.712 425.621 296.556 425.621C286.399 425.621 278.166 417.388 278.166 407.231C278.166 397.075 286.399 388.842 296.556 388.842C306.712 388.842 314.945 397.075 314.945 407.231ZM333.335 462.401C343.492 462.401 351.725 454.167 351.725 444.011C351.725 433.855 343.492 425.621 333.335 425.621C323.179 425.621 314.945 433.855 314.945 444.011C314.945 454.167 323.179 462.401 333.335 462.401Z" fill="white" style="fill:white;fill-opacity:1;"/>
</svg>
