<?xml version="1.0" encoding="UTF-8"?>
<svg id="Layer_4" data-name="Layer 4" xmlns="http://www.w3.org/2000/svg" version="1.1" xmlns:xlink="http://www.w3.org/1999/xlink" viewBox="0 0 1024 1024">
  <defs>
    <style>
      .cls-1 {
        fill: url(#linear-gradient);
      }

      .cls-1, .cls-2, .cls-3 {
        stroke-width: 0px;
      }

      .cls-2 {
        fill: url(#linear-gradient-2);
      }

      .cls-3 {
        fill: #fff;
      }
    </style>
    <linearGradient id="linear-gradient" x1="1066.695" y1="977.925" x2="333.419" y2="113.925" gradientUnits="userSpaceOnUse">
      <stop offset=".264" stop-color="#f2e966"/>
      <stop offset=".879" stop-color="#f2a41e"/>
    </linearGradient>
    <linearGradient id="linear-gradient-2" x1="887.714" y1="991.633" x2="289.246" y2="103.122" gradientUnits="userSpaceOnUse">
      <stop offset=".139" stop-color="#f4e006"/>
      <stop offset=".592" stop-color="#f6ab1b"/>
      <stop offset=".923" stop-color="#f57f20"/>
    </linearGradient>
  </defs>
  <path class="cls-1" d="M260.364,47.846c127.262,0,230.458,103.054,230.691,230.256v.01h297.415l72.851-168.983c9.699-22.497,31.622-35.953,54.658-35.953,7.857,0,15.849,1.567,23.522,4.876l12.895,5.559,12.661,5.458,21.101,9.097-41.24,95.659-21.101-9.097-40.259,93.384h5.368c10.762,0,18.895,9.749,16.967,20.336l-120.866,663.551c-1.493,8.198-8.634,14.155-16.967,14.155h-372.585c-8.333,0-15.473-5.958-16.967-14.155l-82.96-455.449c-.028.004-.055.009-.083.014-.932.152-1.854.284-2.787.415-10.559,1.479-21.351,2.25-32.315,2.25-127.404,0-230.691-103.287-230.691-230.691S132.96,47.846,260.364,47.846M260.364,21.846c-34.641,0-68.26,6.791-99.923,20.183-30.569,12.93-58.018,31.435-81.584,55.001-23.566,23.566-42.071,51.015-55.001,81.584-13.393,31.663-20.183,65.282-20.183,99.923s6.791,68.26,20.183,99.923c12.93,30.569,31.435,58.018,55.001,81.584,23.566,23.566,51.015,42.071,81.584,55.001,31.663,13.393,65.282,20.183,99.923,20.183,4.629,0,9.273-.125,13.912-.375l78.654,431.804c3.746,20.568,21.639,35.496,42.546,35.496h372.585c20.906,0,38.799-14.928,42.546-35.496l120.866-663.551c2.305-12.655-1.099-25.577-9.339-35.454-1.237-1.482-2.56-2.869-3.96-4.157l19.228-44.6,21.101,9.097,10.293-23.876,41.24-95.659,10.293-23.875-23.875-10.293-21.101-9.097-12.661-5.458-12.895-5.559c-10.773-4.645-22.151-7-33.815-7-34.178,0-65.004,20.278-78.534,51.66l-66.079,153.276h-255.646c-2.591-25.441-8.944-50.173-18.98-73.811-12.955-30.515-31.468-57.911-55.026-81.428-23.56-23.519-50.991-41.985-81.531-54.887-31.633-13.363-65.217-20.139-99.819-20.139h0Z"/>
  <path class="cls-2" d="M888.926,278.111h-397.871v-.01c-.233-127.201-103.429-230.256-230.691-230.256S29.673,151.133,29.673,278.537s103.287,230.691,230.691,230.691c10.964,0,21.756-.77,32.315-2.25.932-.132,1.854-.263,2.787-.415.028-.004.055-.009.083-.014l82.96,455.449c1.493,8.198,8.634,14.155,16.967,14.155h372.585c8.333,0,15.473-5.958,16.967-14.155l120.866-663.551c1.929-10.588-6.205-20.336-16.967-20.336Z"/>
  <path class="cls-3" d="M965.057,89.068l-12.661-5.458-12.895-5.559c-30.171-13.007-65.173.907-78.18,31.078l-300.974,698.133c-5.59,12.966-9.317,26.657-11.072,40.666l-10.805,86.259c-.713,5.695,1.893,11.434,6.888,14.261,5.968,3.377,13.377,1.924,17.644-3.251l55.564-67.397c8.981-10.894,16.377-23.004,21.967-35.97L923.817,184.727l21.101,9.097,41.24-95.659-21.101-9.097Z"/>
  <path class="cls-3" d="M206.562,332.338v-107.602h107.602v107.602h-107.602ZM206.562,439.94v-35.867h-35.867c-9.864,0-18.307-3.512-25.331-10.536s-10.536-15.468-10.536-25.331v-35.867h-35.867v-35.867h35.867v-35.867h-35.867v-35.867h35.867v-35.867c0-9.864,3.512-18.307,10.536-25.331,7.024-7.024,15.468-10.536,25.331-10.536h35.867v-35.867h35.867v35.867h35.867v-35.867h35.867v35.867h35.867c9.864,0,18.307,3.512,25.331,10.536,7.024,7.024,10.536,15.468,10.536,25.331v35.867h35.867v35.867h-35.867v35.867h35.867v35.867h-35.867v35.867c0,9.864-3.512,18.307-10.536,25.331-7.024,7.024-15.468,10.536-25.331,10.536h-35.867v35.867h-35.867v-35.867h-35.867v35.867h-35.867ZM350.032,368.206v-179.337h-179.337v179.337h179.337Z"/>
  <metadata>
    <sfw xmlns="http://ns.adobe.com/SaveForWeb/1.0/">
      <slices/>
      <sliceSourceBounds x="3.67" y="-1002.15" width="1016.65" height="980.31" bottomLeftOrigin="true"/>
      <optimizationSettings>
        <targetSettings fileFormat="JPEGFormat" targetSettingsID="0">
          <JPEGFormat blurAmount="0" embedICCProfile="false" matteColor="#FFFFFF" noMatteColor="false" optimized="true" progressive="true" quality="60"/>
        </targetSettings>
      </optimizationSettings>
    </sfw>
  </metadata>
</svg>