<?xml version="1.0" encoding="UTF-8"?>
<!DOCTYPE svg PUBLIC "-//W3C//DTD SVG 1.1//EN" "http://www.w3.org/Graphics/SVG/1.1/DTD/svg11.dtd">
<svg xmlns="http://www.w3.org/2000/svg" version="1.1" width="500px" height="500px" style="shape-rendering:geometricPrecision; text-rendering:geometricPrecision; image-rendering:optimizeQuality; fill-rule:evenodd; clip-rule:evenodd" xmlns:xlink="http://www.w3.org/1999/xlink">
<g><path style="opacity:0.977" fill="#010101" d="M 246.5,28.5 C 257.859,27.5612 267.025,31.5612 274,40.5C 277.507,45.5095 280.507,50.8428 283,56.5C 290.745,78.07 299.079,99.4033 308,120.5C 327.38,159.593 347.047,198.593 367,237.5C 380.311,266.41 387.478,296.743 388.5,328.5C 387.044,389.279 359.044,432.779 304.5,459C 250.873,478.669 201.873,470.669 157.5,435C 119.756,399.594 104.589,356.094 112,304.5C 117.117,275.692 125.784,248.025 138,221.5C 157.474,181.886 177.474,142.553 198,103.5C 205.784,84.5972 214.118,65.9305 223,47.5C 228.183,37.6862 236.016,31.3529 246.5,28.5 Z"/></g>
<g><path style="opacity:1" fill="#fdfdfd" d="M 249.5,52.5 C 251.903,52.393 253.736,53.393 255,55.5C 257.333,60.1667 259.667,64.8333 262,69.5C 269.558,91.9478 278.225,113.948 288,135.5C 308.892,175.95 329.225,216.617 349,257.5C 362.118,286.875 366.785,317.541 363,349.5C 355.168,389.335 333.001,418.168 296.5,436C 246.872,454.132 203.038,444.965 165,408.5C 144.405,385.726 134.238,358.893 134.5,328C 136.044,298.586 142.877,270.419 155,243.5C 174.869,202.096 195.535,161.096 217,120.5C 223.884,106.066 230.217,91.3995 236,76.5C 239.752,67.9869 244.252,59.9869 249.5,52.5 Z"/></g>
<g><path style="opacity:1" fill="#070707" d="M 228.5,235.5 C 241.837,235.333 255.171,235.5 268.5,236C 274.469,237.298 278.635,240.798 281,246.5C 281.035,260.261 281.702,273.927 283,287.5C 283.75,288.126 284.584,288.626 285.5,289C 298.167,289.333 310.833,289.667 323.5,290C 328.91,291.743 332.744,295.243 335,300.5C 335.667,313.833 335.667,327.167 335,340.5C 333.61,346.891 329.776,351.058 323.5,353C 310.072,353.036 296.739,353.703 283.5,355C 282.874,355.75 282.374,356.584 282,357.5C 281.667,370.167 281.333,382.833 281,395.5C 279.058,401.776 274.891,405.61 268.5,407C 255.167,407.667 241.833,407.667 228.5,407C 223.243,404.744 219.743,400.91 218,395.5C 217.964,382.072 217.297,368.739 216,355.5C 215.25,354.874 214.416,354.374 213.5,354C 200.5,353.667 187.5,353.333 174.5,353C 168.798,350.635 165.298,346.469 164,340.5C 163.333,327.167 163.333,313.833 164,300.5C 166.167,295.667 169.667,292.167 174.5,290C 188.261,289.965 201.927,289.298 215.5,288C 216.126,287.25 216.626,286.416 217,285.5C 217.333,272.5 217.667,259.5 218,246.5C 220.357,241.645 223.857,237.979 228.5,235.5 Z"/></g>
<g><path style="opacity:1" fill="#fcfcfc" d="M 230.5,246.5 C 243.171,246.333 255.838,246.5 268.5,247C 269,247.5 269.5,248 270,248.5C 271.298,262.073 271.965,275.739 272,289.5C 274.232,294.731 278.065,298.231 283.5,300C 296.5,300.333 309.5,300.667 322.5,301C 323,301.5 323.5,302 324,302.5C 324.667,315.167 324.667,327.833 324,340.5C 323.097,341.701 321.931,342.535 320.5,343C 307.5,343.333 294.5,343.667 281.5,344C 277,345.833 273.833,349 272,353.5C 271.667,366.5 271.333,379.5 271,392.5C 270.535,393.931 269.701,395.097 268.5,396C 255.833,396.667 243.167,396.667 230.5,396C 230,395.5 229.5,395 229,394.5C 228.667,381.5 228.333,368.5 228,355.5C 226.231,350.065 222.731,346.232 217.5,344C 204.5,343.667 191.5,343.333 178.5,343C 177.069,342.535 175.903,341.701 175,340.5C 174.333,327.833 174.333,315.167 175,302.5C 175.5,302 176,301.5 176.5,301C 188.833,300.667 201.167,300.333 213.5,300C 221.667,298.5 226.5,293.667 228,285.5C 228.333,273.167 228.667,260.833 229,248.5C 229.717,247.956 230.217,247.289 230.5,246.5 Z"/></g>
<g><path style="opacity:1" fill="#070707" d="M 247.5,259.5 C 249.144,259.286 250.644,259.62 252,260.5C 254.416,265.001 257.083,269.334 260,273.5C 260.72,275.112 260.554,276.612 259.5,278C 252.586,278.811 245.752,278.645 239,277.5C 238.333,276.167 238.333,274.833 239,273.5C 242.096,268.972 244.929,264.305 247.5,259.5 Z"/></g>
<g><path style="opacity:1" fill="#070707" d="M 201.5,310.5 C 203.144,310.286 204.644,310.62 206,311.5C 206.667,318.167 206.667,324.833 206,331.5C 205.275,332.059 204.442,332.392 203.5,332.5C 197.359,329.782 192.025,326.116 187.5,321.5C 187.608,320.558 187.941,319.725 188.5,319C 193.24,316.64 197.574,313.807 201.5,310.5 Z"/></g>
<g><path style="opacity:1" fill="#070707" d="M 293.5,310.5 C 296.745,310.88 299.745,312.047 302.5,314C 304.901,316.062 307.567,317.729 310.5,319C 311.833,320.667 311.833,322.333 310.5,324C 305.605,327.072 300.605,329.905 295.5,332.5C 294.558,332.392 293.725,332.059 293,331.5C 292.205,324.42 292.372,317.42 293.5,310.5 Z"/></g>
<g><path style="opacity:1" fill="#070707" d="M 239.5,364.5 C 246.422,364.188 253.256,364.521 260,365.5C 260.667,366.833 260.667,368.167 260,369.5C 257.042,373.916 254.208,378.416 251.5,383C 249.888,383.72 248.388,383.554 247,382.5C 244.584,377.999 241.917,373.666 239,369.5C 238.36,367.735 238.527,366.068 239.5,364.5 Z"/></g>
</svg>
