<?xml version="1.0" encoding="UTF-8"?>
<!DOCTYPE svg PUBLIC "-//W3C//DTD SVG 1.1//EN" "http://www.w3.org/Graphics/SVG/1.1/DTD/svg11.dtd">
<svg xmlns="http://www.w3.org/2000/svg" version="1.1" width="500px" height="500px" style="shape-rendering:geometricPrecision; text-rendering:geometricPrecision; image-rendering:optimizeQuality; fill-rule:evenodd; clip-rule:evenodd" xmlns:xlink="http://www.w3.org/1999/xlink">
<g><path style="opacity:0.977" fill="#fffefe" d="M 246.5,28.5 C 257.859,27.5612 267.025,31.5612 274,40.5C 277.507,45.5095 280.507,50.8428 283,56.5C 290.745,78.07 299.079,99.4033 308,120.5C 327.38,159.593 347.047,198.593 367,237.5C 380.311,266.41 387.478,296.743 388.5,328.5C 387.044,389.279 359.044,432.779 304.5,459C 250.873,478.669 201.873,470.669 157.5,435C 119.756,399.594 104.589,356.094 112,304.5C 117.117,275.692 125.784,248.025 138,221.5C 157.474,181.886 177.474,142.553 198,103.5C 205.784,84.5972 214.118,65.9305 223,47.5C 228.183,37.6862 236.016,31.3529 246.5,28.5 Z"/></g>
<g><path style="opacity:1" fill="#f7c310" d="M 249.5,52.5 C 251.903,52.393 253.736,53.393 255,55.5C 256.08,57.9962 257.414,60.3295 259,62.5C 267.88,87.1399 277.547,111.473 288,135.5C 308.876,175.919 329.209,216.586 349,257.5C 362.012,286.569 366.678,316.902 363,348.5C 355.612,388.889 333.446,418.056 296.5,436C 246.244,454.433 202.078,444.933 164,407.5C 143.654,384.62 133.821,357.787 134.5,327C 136.118,297.919 142.951,270.086 155,243.5C 174.869,202.096 195.535,161.096 217,120.5C 223.884,106.066 230.217,91.3995 236,76.5C 239.752,67.9869 244.252,59.9869 249.5,52.5 Z"/></g>
<g><path style="opacity:1" fill="#fffefc" d="M 228.5,235.5 C 241.837,235.333 255.171,235.5 268.5,236C 274.469,237.298 278.635,240.798 281,246.5C 281.035,260.261 281.702,273.927 283,287.5C 283.75,288.126 284.584,288.626 285.5,289C 298.167,289.333 310.833,289.667 323.5,290C 328.91,291.743 332.744,295.243 335,300.5C 335.667,313.833 335.667,327.167 335,340.5C 333.61,346.891 329.776,351.058 323.5,353C 310.072,353.036 296.739,353.703 283.5,355C 282.874,355.75 282.374,356.584 282,357.5C 281.667,370.167 281.333,382.833 281,395.5C 279.058,401.776 274.891,405.61 268.5,407C 255.167,407.667 241.833,407.667 228.5,407C 223.243,404.744 219.743,400.91 218,395.5C 217.964,382.072 217.297,368.739 216,355.5C 215.25,354.874 214.416,354.374 213.5,354C 200.5,353.667 187.5,353.333 174.5,353C 168.798,350.635 165.298,346.469 164,340.5C 163.333,327.167 163.333,313.833 164,300.5C 166.167,295.667 169.667,292.167 174.5,290C 188.261,289.965 201.927,289.298 215.5,288C 216.126,287.25 216.626,286.416 217,285.5C 217.333,272.5 217.667,259.5 218,246.5C 220.357,241.645 223.857,237.979 228.5,235.5 Z"/></g>
<g><path style="opacity:1" fill="#f7c417" d="M 230.5,246.5 C 243.171,246.333 255.838,246.5 268.5,247C 269,247.5 269.5,248 270,248.5C 271.298,262.073 271.965,275.739 272,289.5C 273.833,294 277,297.167 281.5,299C 294.5,299.333 307.5,299.667 320.5,300C 321.931,300.465 323.097,301.299 324,302.5C 324.667,315.167 324.667,327.833 324,340.5C 323.097,341.701 321.931,342.535 320.5,343C 307.5,343.333 294.5,343.667 281.5,344C 277,345.833 273.833,349 272,353.5C 271.667,366.5 271.333,379.5 271,392.5C 270.535,393.931 269.701,395.097 268.5,396C 255.833,396.667 243.167,396.667 230.5,396C 229.299,395.097 228.465,393.931 228,392.5C 227.667,379.5 227.333,366.5 227,353.5C 225.167,349 222,345.833 217.5,344C 204.5,343.667 191.5,343.333 178.5,343C 177.069,342.535 175.903,341.701 175,340.5C 174.333,327.833 174.333,315.167 175,302.5C 175.903,301.299 177.069,300.465 178.5,300C 191.5,299.667 204.5,299.333 217.5,299C 222,297.167 225.167,294 227,289.5C 227.333,276.5 227.667,263.5 228,250.5C 228.662,249.016 229.496,247.683 230.5,246.5 Z"/></g>
<g><path style="opacity:1" fill="#fffefb" d="M 247.5,259.5 C 250.997,260.06 253.497,262.06 255,265.5C 256.271,268.433 257.938,271.099 260,273.5C 260.72,275.112 260.554,276.612 259.5,278C 252.586,278.811 245.752,278.645 239,277.5C 238.333,276.167 238.333,274.833 239,273.5C 242.107,268.944 244.94,264.277 247.5,259.5 Z"/></g>
<g><path style="opacity:1" fill="#fffefb" d="M 201.5,310.5 C 203.144,310.286 204.644,310.62 206,311.5C 206.667,318.167 206.667,324.833 206,331.5C 205.275,332.059 204.442,332.392 203.5,332.5C 197.436,329.809 192.103,326.142 187.5,321.5C 191.795,317.353 196.462,313.687 201.5,310.5 Z"/></g>
<g><path style="opacity:1" fill="#fffefb" d="M 293.5,310.5 C 294.873,310.343 296.207,310.51 297.5,311C 302.78,313.794 307.447,317.294 311.5,321.5C 306.897,326.142 301.564,329.809 295.5,332.5C 294.558,332.392 293.725,332.059 293,331.5C 292.205,324.42 292.372,317.42 293.5,310.5 Z"/></g>
<g><path style="opacity:1" fill="#fffefb" d="M 239.5,364.5 C 246.422,364.188 253.256,364.521 260,365.5C 260.667,366.833 260.667,368.167 260,369.5C 257.167,373.833 254.333,378.167 251.5,382.5C 250.167,383.833 248.833,383.833 247.5,382.5C 244.667,378.167 241.833,373.833 239,369.5C 238.36,367.735 238.527,366.068 239.5,364.5 Z"/></g>
</svg>
