<?xml version="1.0" encoding="UTF-8"?>
<svg xmlns="http://www.w3.org/2000/svg" version="1.1" xmlns:inkscape="http://www.inkscape.org/namespaces/inkscape" xmlns:sodipodi="http://sodipodi.sourceforge.net/DTD/sodipodi-0.dtd" xmlns:svg="http://www.w3.org/2000/svg" xmlns:xlink="http://www.w3.org/1999/xlink" viewBox="0 0 368 358">
  <defs>
    <linearGradient id="linear-gradient" x1="132.3" y1="492.7" x2="495" y2="131" gradientTransform="translate(0 360) scale(1 -1)" gradientUnits="userSpaceOnUse">
      <stop offset="0" stop-color="#000"/>
      <stop offset="1" stop-color="#000"/>
    </linearGradient>
    <linearGradient id="linear-gradient-2" x1="126.8" y1="487.1" x2="489.4" y2="125.4" gradientTransform="translate(0 360) scale(1 -1)" gradientUnits="userSpaceOnUse">
      <stop offset="0" stop-color="#000"/>
      <stop offset="1" stop-color="#000"/>
    </linearGradient>
    <linearGradient id="linear-gradient-3" x1="38.2" y1="398.3" x2="400.8" y2="36.6" gradientTransform="translate(0 360) scale(1 -1)" gradientUnits="userSpaceOnUse">
      <stop offset="0" stop-color="#000"/>
      <stop offset="1" stop-color="#000"/>
    </linearGradient>
    <linearGradient id="linear-gradient-4" x1="-28.3" y1="331.7" x2="334.4" y2="-30" gradientTransform="translate(0 360) scale(1 -1)" gradientUnits="userSpaceOnUse">
      <stop offset="0" stop-color="#000"/>
      <stop offset="1" stop-color="#000"/>
    </linearGradient>
    <linearGradient id="linear-gradient-5" x1="127.8" y1="488.1" x2="490.4" y2="126.4" gradientTransform="translate(0 360) scale(1 -1)" gradientUnits="userSpaceOnUse">
      <stop offset="0" stop-color="#000"/>
      <stop offset="1" stop-color="#000"/>
    </linearGradient>
    <linearGradient id="linear-gradient-6" x1="28.4" y1="388.5" x2="391" y2="26.8" gradientTransform="translate(0 360) scale(1 -1)" gradientUnits="userSpaceOnUse">
      <stop offset="0" stop-color="#fa7308"/>
      <stop offset="1" stop-color="#f5f000"/>
    </linearGradient>
    <linearGradient id="linear-gradient-7" x1="27.3" y1="387.4" x2="389.9" y2="25.7" gradientTransform="translate(0 360) scale(1 -1)" gradientUnits="userSpaceOnUse">
      <stop offset="0" stop-color="#fa7308"/>
      <stop offset="1" stop-color="#f5f000"/>
    </linearGradient>
  </defs>
  <g id="svg39" sodipodi:docname="maybework3.svg">
    <sodipodi:namedview id="namedview39" bordercolor="#ffffff" borderopacity="1" inkscape:current-layer="svg39" inkscape:cx="183.89801" inkscape:cy="179" inkscape:deskcolor="#505050" inkscape:pagecheckerboard="1" inkscape:pageopacity="0" inkscape:showpageshadow="0" inkscape:window-height="1009" inkscape:window-maximized="1" inkscape:window-width="2560" inkscape:window-x="-8" inkscape:window-y="-8" inkscape:zoom="2.2458101" pagecolor="#505050"/>
    <path id="path1" d="M324.4,59.9l4.4,2.5h0s0-.1,0-.1l-4.4-2.5h0Z" fill="#fff" stroke-width="0"/>
    <path id="path2" d="M325,21.2c-9,0-13.8,8.3-23.6,25.4l-18.2,31.7h0l18.3-31.7c7.2-12.5,11.7-20.3,17.2-23.6.6-.4,1.2-.7,1.9-.9.9-.4,1.9-.6,2.9-.7.5,0,1-.1,1.6-.1Z" fill="#fff" stroke-width="0"/>
    <path id="path3" d="M141.9,78.3h-.5v-.2c0-5-.6-9.8-1.7-14.5-3.4-14.8-12-27.5-23.8-36.3-10.5-7.9-23.5-12.5-37.6-12.6.1,0,.2,0,.4,0,32.2,0,58.7,24.2,62.6,55.4.3,2.6.5,5.3.5,8h0v.2Z" fill="#fff" stroke-width="0"/>
    <path id="path4" d="M78.4,141.4c.1,0,.2,0,.4,0,1.4,0,2.9,0,4.3-.1,2.5-.2,5-.5,7.5-1h0c-3.9.7-8,1.1-12.1,1.1Z" fill="#fff" stroke-width="0"/>
    <path id="path5" d="M328.7,71.9c-.5-.3-1-.5-1.6-.7v-.2c0,0,1.6.9,1.6.9Z" fill="#fff" stroke-width="0"/>
    <path id="path6" d="M344.2,91c1.2-6.7-.6-13.1-4.3-18.1l27.8-48.1-12.7-7.3c-7-4-13.5-7.4-19.6-9.3-6.5-2-13.7-2.6-21,.6-6.7,2.9-11.3,8.2-14.7,13-3.3,4.7-6.8,10.6-10.5,17h0s-14.4,24.9-14.4,24.9h-120.1C148,27.4,116.2,0,78.1,0S0,34.9,0,78.1s34.9,78.1,78.1,78.1.5,0,.8,0l37,182.3c2.2,10.8,11.7,18.6,22.8,18.6h138c11.2,0,20.9-8.1,22.9-19.1l44.6-246.9ZM337.5,89.8c1.3-7-2-13.6-7.4-17.1l1.7,1,26.7-46.5-7.1-4.1c-6.9-4-12.9-7.1-18.2-8.7-5.5-1.7-11.1-2-16.5.3-5.1,2.2-8.8,6.4-12,10.8-3.1,4.4-6.4,10.1-10.2,16.6l-16,27.9h-128.8c-4-35.8-34.2-63.6-70.9-63.6S7.5,38.5,7.5,78.1s31.9,71.6,71.3,71.6,4,0,5.9-.2l37.9,187.7c1.6,7.8,8.4,13.5,16.4,13.5h137.5c8.1,0,15.1-5.8,16.5-13.8l44.4-246.9Z" fill="#fff" fill-rule="evenodd" stroke-width="0"/>
    <path id="path7" d="M324.4,59.9h0c0-.1,4.4,2.4,4.4,2.4h.2c0,.1,18.6-32.1,18.6-32.1-10.4-6-17.2-9-22.6-9-.5,0-1.1,0-1.6.1-1,.1-1.9.4-2.9.7-.6.3-1.2.6-1.9.9-5.4,3.3-9.9,11.1-17.2,23.6l-18.3,31.7h-141.9c0,30.6-21.9,56.1-50.9,61.9h0c0,.1,39.4,194.5,39.4,194.5.9,4.4,4.8,7.6,9.4,7.6h136.5c4.6,0,8.6-3.3,9.4-7.8l44.3-245c1.1-5.9-3.4-11.2-9.4-11.2h-6.3l10.6-18.3ZM313.8,78.3h-30.5s-121,209.7-121,209.7l-12.8,36c-1,2.9.2,6.1,2.8,7.6,2.7,1.5,6,1,8-1.4l24.8-29.1,128.7-222.9ZM171.8,141.9c0-1.6-1.3-2.9-2.9-2.9h-25.8c-1.6,0-2.9,1.3-2.9,2.9v28.8h-28.8c-1.6,0-2.9,1.3-2.9,2.9v25.8c0,1.6,1.3,2.9,2.9,2.9h28.8v28.8c0,1.6,1.3,2.9,2.9,2.9h25.8c1.6,0,2.9-1.3,2.9-2.9v-28.8h28.8c1.6,0,2.9-1.3,2.9-2.9v-25.8c0-1.6-1.3-2.9-2.9-2.9h-28.8v-28.8ZM158.6,223.5v-10.6c0-1.5-1.2-2.6-2.6-2.6s-2.6,1.2-2.6,2.6v10.6c0,1.5,1.2,2.6,2.6,2.6s2.6-1.2,2.6-2.6ZM158.6,149.6v10.6c0,1.5-1.2,2.6-2.6,2.6s-2.6-1.2-2.6-2.6v-10.6c0-1.5,1.2-2.6,2.6-2.6s2.6,1.2,2.6,2.6ZM192.9,183.9h-10.6c-1.5,0-2.6,1.2-2.6,2.6s1.2,2.6,2.6,2.6h10.6c1.5,0,2.6-1.2,2.6-2.6s-1.2-2.6-2.6-2.6ZM118.9,183.9h10.6c1.5,0,2.6,1.2,2.6,2.6s-1.2,2.6-2.6,2.6h-10.6c-1.5,0-2.6-1.2-2.6-2.6s1.2-2.6,2.6-2.6ZM252.6,266c0,7.3-5.9,13.2-13.2,13.2s-13.2-5.9-13.2-13.2,5.9-13.2,13.2-13.2,13.2,5.9,13.2,13.2ZM279,292.5c0,7.3-5.9,13.2-13.2,13.2s-13.2-5.9-13.2-13.2,5.9-13.2,13.2-13.2,13.2,5.9,13.2,13.2ZM213,305.7c7.3,0,13.2-5.9,13.2-13.2s-5.9-13.2-13.2-13.2-13.2,5.9-13.2,13.2,5.9,13.2,13.2,13.2ZM252.6,318.9c0,7.3-5.9,13.2-13.2,13.2s-13.2-5.9-13.2-13.2,5.9-13.2,13.2-13.2,13.2,5.9,13.2,13.2Z" fill="#fff" fill-rule="evenodd" stroke-width="0"/>
    <path id="path8" d="M330.1,72.7c5.5,3.5,8.7,10.2,7.4,17.1l-44.4,246.9c-1.4,8-8.4,13.8-16.5,13.8h-137.5c-8,0-14.9-5.7-16.4-13.5l-37.9-187.7c-2,.2-3.9.2-5.9.2-39.4,0-71.3-32.1-71.3-71.6S39.4,6.5,78.8,6.5s66.9,27.8,70.9,63.6h128.8l16-27.9c3.8-6.5,7-12.2,10.2-16.6,3.2-4.4,6.9-8.6,12-10.8,5.4-2.4,11-2,16.5-.3,5.3,1.6,11.3,4.7,18.2,8.7l7.1,4.1-26.7,46.5-1.7-1ZM324.4,59.9l4.4,2.5h0s0-.1,0-.1l-4.4-2.5h0ZM324.5,59.8l4.4,2.5h.2c0,.1,18.6-32.1,18.6-32.1-10.4-6-17.2-9-22.6-9-.5,0-1.1,0-1.6.1-1,.1-1.9.4-2.9.7-.6.3-1.2.6-1.9.9-5.4,3.3-9.9,11.1-17.2,23.6l-18.3,31.7h30.5s10.6-18.3,10.6-18.3h0ZM325,21.2c-9,0-13.8,8.3-23.6,25.4l-18.2,31.7h0l18.3-31.7c7.2-12.5,11.7-20.3,17.2-23.6.6-.4,1.2-.7,1.9-.9.9-.4,1.9-.6,2.9-.7.5,0,1-.1,1.6-.1ZM283.3,78.3h-141.9c0,30.6-21.9,56.1-50.9,61.9h0c0,.1,39.4,194.5,39.4,194.5.9,4.4,4.8,7.6,9.4,7.6h136.5c4.6,0,8.6-3.3,9.4-7.8l44.3-245c1.1-5.9-3.4-11.2-9.4-11.2h-6.3l-128.7,222.9-24.8,29.1c-2,2.3-5.4,2.9-8,1.4-2.7-1.5-3.8-4.7-2.8-7.6l12.8-36,121-209.7ZM141.4,78.3h.5v-.2c0-2.7-.2-5.4-.5-8-3.9-31.2-30.5-55.4-62.6-55.4s-.2,0-.4,0c14.1,0,27.1,4.8,37.6,12.6,11.7,8.8,20.3,21.6,23.8,36.3,1.1,4.6,1.7,9.5,1.7,14.5v.2ZM78.4,141.4c.1,0,.2,0,.4,0,1.4,0,2.9,0,4.3-.1,2.5-.2,5-.5,7.5-1h0c-3.9.7-8,1.1-12.1,1.1ZM328.7,71.9c-.5-.3-1-.5-1.6-.7v-.2c0,0,1.6.9,1.6.9ZM313.8,78.3h-30.5s-121,209.7-121,209.7l-12.8,36c-1,2.9.2,6.1,2.8,7.6,2.7,1.5,6,1,8-1.4l24.8-29.1,128.7-222.9ZM90.6,140.2c28.9-5.8,50.8-31.3,50.9-61.9h-51.8c-6,0-10.6,5.5-9.4,11.4l10.2,50.5ZM113.1,38.5c-1.7-1.5-4.3-1.1-5.7.7l-20.7,27.5c-.3.5-.3,1.1.2,1.5.4.4,1.1.4,1.5,0l24.8-23.9c1.6-1.6,1.7-4.2,0-5.8ZM59,33.2c-.9-2.1,0-4.6,2.3-5.3,2.2-.7,4.4.6,5,2.9l8.3,33.4c.1.6-.2,1.1-.7,1.3-.5.2-1.2,0-1.4-.6l-13.5-31.7ZM26.3,67.5c-.5,2.2,1.2,4.3,3.5,4.6l34.2,4.2c.6,0,1.1-.3,1.2-.9.1-.6-.2-1.1-.8-1.3l-33.1-9.5c-2.2-.6-4.5.6-5,2.9ZM48.8,116.9c-1.4,1.8-4,2.2-5.7.7-1.7-1.5-1.7-4.2,0-5.8l24.8-23.9c.4-.4,1.1-.4,1.5,0,.4.4.5,1,.2,1.5l-20.7,27.5Z" fill="#fff" fill-rule="evenodd" stroke-width="0"/>
    <path id="path9" d="M313.8,78.3h-30.5s-121,209.7-121,209.7l-12.8,36c-1,2.9.2,6.1,2.8,7.6,2.7,1.5,6,1,8-1.4l24.8-29.1,128.7-222.9Z" fill="#fff" stroke-width="0"/>
    <path id="path10" d="M213,305.7c7.3,0,13.2-5.9,13.2-13.2s-5.9-13.2-13.2-13.2-13.2,5.9-13.2,13.2,5.9,13.2,13.2,13.2Z" fill="#fff" stroke-width="0"/>
    <path id="path11" d="M252.6,266c0,7.3-5.9,13.2-13.2,13.2s-13.2-5.9-13.2-13.2,5.9-13.2,13.2-13.2,13.2,5.9,13.2,13.2Z" fill="#fff" stroke-width="0"/>
    <path id="path12" d="M279,292.5c0,7.3-5.9,13.2-13.2,13.2s-13.2-5.9-13.2-13.2,5.9-13.2,13.2-13.2,13.2,5.9,13.2,13.2Z" fill="#fff" stroke-width="0"/>
    <path id="path13" d="M252.6,318.9c0,7.3-5.9,13.2-13.2,13.2s-13.2-5.9-13.2-13.2,5.9-13.2,13.2-13.2,13.2,5.9,13.2,13.2Z" fill="#fff" stroke-width="0"/>
    <path id="path14" d="M171.8,141.9c0-1.6-1.3-2.9-2.9-2.9h-25.8c-1.6,0-2.9,1.3-2.9,2.9v28.8h-28.8c-1.6,0-2.9,1.3-2.9,2.9v25.8c0,1.6,1.3,2.9,2.9,2.9h28.8v28.8c0,1.6,1.3,2.9,2.9,2.9h25.8c1.6,0,2.9-1.3,2.9-2.9v-28.8h28.8c1.6,0,2.9-1.3,2.9-2.9v-25.8c0-1.6-1.3-2.9-2.9-2.9h-28.8v-28.8ZM158.6,213v10.6c0,1.5-1.2,2.6-2.6,2.6s-2.6-1.2-2.6-2.6v-10.6c0-1.5,1.2-2.6,2.6-2.6s2.6,1.2,2.6,2.6ZM158.6,160.1v-10.6c0-1.5-1.2-2.6-2.6-2.6s-2.6,1.2-2.6,2.6v10.6c0,1.5,1.2,2.6,2.6,2.6s2.6-1.2,2.6-2.6ZM182.3,183.9h10.6c1.5,0,2.6,1.2,2.6,2.6s-1.2,2.6-2.6,2.6h-10.6c-1.5,0-2.6-1.2-2.6-2.6s1.2-2.6,2.6-2.6ZM129.5,183.9h-10.6c-1.5,0-2.6,1.2-2.6,2.6s1.2,2.6,2.6,2.6h10.6c1.5,0,2.6-1.2,2.6-2.6s-1.2-2.6-2.6-2.6Z" fill="#fff" fill-rule="evenodd" stroke-width="0"/>
    <path id="path15" d="M90.6,140.2c28.9-5.8,50.8-31.3,50.9-61.9h-51.8c-6,0-10.6,5.5-9.4,11.4l10.2,50.5Z" fill="#fff" stroke-width="0"/>
    <path id="path16" d="M43,117.6c1.7,1.5,4.3,1.1,5.7-.7l20.7-27.5c.3-.5.3-1.1-.2-1.5-.4-.4-1.1-.4-1.5,0l-24.8,23.9c-1.6,1.6-1.7,4.2,0,5.8Z" fill="#fff" stroke-width="0"/>
    <path id="path17" d="M29.7,72.1c-2.3-.3-3.9-2.4-3.5-4.6.5-2.2,2.8-3.5,5-2.9l33.1,9.5c.6.2.9.7.8,1.3-.1.6-.6,1-1.2.9l-34.2-4.2Z" fill="#fff" stroke-width="0"/>
    <path id="path18" d="M61.3,28c-2.2.7-3.2,3.2-2.3,5.3l13.5,31.7c.2.5.8.8,1.4.6.5-.2.9-.7.7-1.3l-8.3-33.4c-.6-2.2-2.8-3.6-5-2.9Z" fill="#fff" stroke-width="0"/>
    <path id="path19" d="M107.3,39.2c1.4-1.8,4-2.2,5.7-.7,1.7,1.5,1.7,4.2,0,5.8l-24.8,23.9c-.4.4-1.1.4-1.5,0-.4-.4-.5-1-.2-1.5l20.7-27.5Z" fill="#fff" stroke-width="0"/>
    <path id="path20" d="M324.4,59.9l4.4,2.5h0s0-.1,0-.1l-4.4-2.5h0Z" fill="url(#linear-gradient)" stroke-width="0"/>
    <path id="path21" d="M325,21.2c-9,0-13.8,8.3-23.6,25.4l-18.2,31.7h0l18.3-31.7c9.8-16.9,14.6-25.3,23.4-25.4Z" fill="url(#linear-gradient-2)" stroke-width="0"/>
    <path id="path22" d="M141.9,78.3h-.5v-.2c0-5-.6-9.8-1.7-14.5-6.5-27.9-31.5-48.8-61.4-48.9.1,0,.2,0,.4,0,32.2,0,58.7,24.2,62.6,55.4.3,2.6.5,5.3.5,8h0v.2Z" fill="url(#linear-gradient-3)" stroke-width="0"/>
    <path id="path23" d="M78.4,141.4c.1,0,.2,0,.4,0,1.4,0,2.9,0,4.3-.1,2.5-.2,5-.5,7.5-1h0c-3.9.7-8,1.1-12.1,1.1Z" fill="url(#linear-gradient-4)" stroke-width="0"/>
    <path id="path24" d="M328.7,71.9c-.5-.3-1-.5-1.6-.7v-.2c0,0,1.6.9,1.6.9Z" fill="url(#linear-gradient-5)" stroke-width="0"/>
    <path id="path25" d="M344.2,91c1.2-6.7-.6-13.1-4.3-18.1l27.8-48.1-12.7-7.3c-7-4-13.5-7.4-19.6-9.3-6.5-2-13.7-2.6-21,.6-6.7,2.9-11.3,8.2-14.7,13-3.3,4.7-6.8,10.6-10.5,17h0s-14.4,24.9-14.4,24.9h-120.1C148,27.4,116.2,0,78.1,0S0,34.9,0,78.1s34.9,78.1,78.1,78.1.5,0,.8,0l37,182.3c2.2,10.8,11.7,18.6,22.8,18.6h138c11.2,0,20.9-8.1,22.9-19.1l44.6-246.9ZM337.5,89.8c1.3-7-2-13.6-7.4-17.1l1.7,1,26.7-46.5-7.1-4.1c-6.9-4-12.9-7.1-18.2-8.7-5.5-1.7-11.1-2-16.5.3-5.1,2.2-8.8,6.4-12,10.8-3.1,4.4-6.4,10.1-10.2,16.6l-16,27.9h-128.8c-4-35.8-34.2-63.6-70.9-63.6S7.5,38.5,7.5,78.1s31.9,71.6,71.3,71.6,4,0,5.9-.2l37.9,187.7c1.6,7.8,8.4,13.5,16.4,13.5h137.5c8.1,0,15.1-5.8,16.5-13.8l44.4-246.9Z" fill="url(#linear-gradient-6)" fill-rule="evenodd" stroke-width="0"/>
    <path id="path26" d="M141.4,78.3v-.2c0-35-28.4-63.4-63.4-63.4S14.7,43,14.7,78.1s28.4,63.4,63.4,63.4,8.5-.4,12.5-1.2l39.5,194.5c.9,4.4,4.8,7.6,9.4,7.6h136.5c4.6,0,8.6-3.3,9.4-7.8l44.3-245c1.1-5.9-3.4-11.2-9.4-11.2h-6.3l10.7-18.5,4.6,2.6,18.6-32.3c-27.4-15.8-30.4-10.8-46.1,16.4l-18.3,31.7h-141.9ZM283.3,78.3h30.5s-128.7,222.9-128.7,222.9l-24.8,29.1c-2,2.3-5.4,2.9-8,1.4-2.7-1.5-3.8-4.7-2.8-7.6l12.8-36,121-209.7ZM141.4,78.3c0,30.6-21.9,56.1-50.9,61.9l-10.2-50.5c-1.2-5.9,3.3-11.4,9.4-11.4h51.8ZM113.1,38.5c-1.7-1.5-4.3-1.1-5.7.7l-20.7,27.5c-.3.5-.3,1.1.2,1.5.4.4,1.1.4,1.5,0l24.8-23.9c1.6-1.6,1.7-4.2,0-5.8ZM59,33.2c-.9-2.1,0-4.6,2.3-5.3,2.2-.7,4.4.6,5,2.9l8.3,33.4c.1.6-.2,1.1-.7,1.3-.5.2-1.2,0-1.4-.6l-13.5-31.7ZM26.3,67.5c-.5,2.2,1.2,4.3,3.5,4.6l34.2,4.2c.6,0,1.1-.3,1.2-.9.1-.6-.2-1.1-.8-1.3l-33.1-9.5c-2.2-.6-4.5.6-5,2.9ZM48.8,116.9c-1.4,1.8-4,2.2-5.7.7-1.7-1.5-1.7-4.2,0-5.8l24.8-23.9c.4-.4,1.1-.4,1.5,0,.4.4.5,1,.2,1.5l-20.7,27.5ZM168.8,139c1.6,0,2.9,1.3,2.9,2.9v28.8h28.8c1.6,0,2.9,1.3,2.9,2.9v25.8c0,1.6-1.3,2.9-2.9,2.9h-28.8v28.8c0,1.6-1.3,2.9-2.9,2.9h-25.8c-1.6,0-2.9-1.3-2.9-2.9v-28.8h-28.8c-1.6,0-2.9-1.3-2.9-2.9v-25.8c0-1.6,1.3-2.9,2.9-2.9h28.8v-28.8c0-1.6,1.3-2.9,2.9-2.9h25.8ZM158.6,213v10.6c0,1.5-1.2,2.6-2.6,2.6s-2.6-1.2-2.6-2.6v-10.6c0-1.5,1.2-2.6,2.6-2.6s2.6,1.2,2.6,2.6ZM158.6,160.1v-10.6c0-1.5-1.2-2.6-2.6-2.6s-2.6,1.2-2.6,2.6v10.6c0,1.5,1.2,2.6,2.6,2.6s2.6-1.2,2.6-2.6ZM182.3,183.9h10.6c1.5,0,2.6,1.2,2.6,2.6s-1.2,2.6-2.6,2.6h-10.6c-1.5,0-2.6-1.2-2.6-2.6s1.2-2.6,2.6-2.6ZM129.5,183.9h-10.6c-1.5,0-2.6,1.2-2.6,2.6s1.2,2.6,2.6,2.6h10.6c1.5,0,2.6-1.2,2.6-2.6s-1.2-2.6-2.6-2.6ZM239.4,279.2c7.3,0,13.2-5.9,13.2-13.2s-5.9-13.2-13.2-13.2-13.2,5.9-13.2,13.2,5.9,13.2,13.2,13.2ZM265.8,305.7c7.3,0,13.2-5.9,13.2-13.2s-5.9-13.2-13.2-13.2-13.2,5.9-13.2,13.2,5.9,13.2,13.2,13.2ZM226.2,292.5c0,7.3-5.9,13.2-13.2,13.2s-13.2-5.9-13.2-13.2,5.9-13.2,13.2-13.2,13.2,5.9,13.2,13.2ZM239.4,332.1c7.3,0,13.2-5.9,13.2-13.2s-5.9-13.2-13.2-13.2-13.2,5.9-13.2,13.2,5.9,13.2,13.2,13.2Z" fill="url(#linear-gradient-7)" fill-rule="evenodd" stroke-width="0"/>
  </g>
</svg>